<svg width="302" height="52" viewBox="0 0 302 52" fill="none" xmlns="http://www.w3.org/2000/svg">
<path d="M81.8111 17.0592H73.3833V30.6244H68.8611V12.5375H81.8111V17.0592V17.0592Z" fill="#413A61"/>
<path d="M85.1 28.1581C83.6612 26.3083 82.8389 24.0474 82.8389 21.581C82.8389 19.1146 83.6612 16.8537 85.1 15.0039C86.7445 12.9486 89.4167 11.9209 92.0889 11.9209C94.7612 11.9209 97.4334 12.9486 99.0778 15.0039C100.722 16.8537 101.339 19.1146 101.339 21.581C101.339 24.2529 100.722 26.1027 99.0778 28.1581C97.4334 30.2134 94.9667 31.2411 92.0889 31.2411C89.4167 31.2411 86.7445 30.0079 85.1 28.1581ZM96.4056 21.581C96.4056 20.1422 96.2 18.909 95.3778 17.8814C94.5556 16.8537 93.3223 16.4426 92.0889 16.4426C90.8556 16.4426 89.4167 16.8537 88.8 17.8814C87.9778 18.909 87.7723 20.3478 87.7723 21.581C87.7723 23.0197 87.9778 24.2529 88.8 25.2806C89.6223 26.3083 90.8556 26.7193 92.0889 26.7193C93.3223 26.7193 94.7612 26.1027 95.3778 25.2806C95.9945 24.4584 96.4056 23.0197 96.4056 21.581Z" fill="#413A61"/>
<path d="M115.522 18.4979C115.522 18.2924 115.317 18.0869 115.111 17.8813C114.289 16.8537 113.056 16.4426 111.822 16.4426C110.589 16.4426 109.356 17.0592 108.533 17.8813C107.711 18.909 107.506 20.3477 107.506 21.5809C107.506 23.0197 107.711 24.2529 108.533 25.2806C109.356 26.3082 110.589 26.7193 111.822 26.7193C113.056 26.7193 114.494 26.3082 115.111 25.2806C115.317 25.075 115.317 24.8695 115.522 24.6639L119.839 26.5138C119.633 26.9248 119.222 27.5414 118.811 27.9525C117.167 30.0078 114.494 31.0355 111.822 31.0355C109.15 31.0355 106.683 30.0078 105.039 27.9525C103.6 26.1027 102.778 23.8418 102.778 21.3754C102.778 18.909 103.394 16.6481 105.039 14.7983C106.683 12.743 109.356 11.7153 111.822 11.7153C114.494 11.7153 117.167 12.743 118.811 14.7983C119.222 15.2094 119.633 15.826 119.839 16.2371L115.522 18.4979Z" fill="#413A61"/>
<path d="M139.983 21.5809C139.983 24.0473 139.367 26.3082 137.928 28.158C136.489 30.0078 134.022 31.0354 131.761 31.0354C130.117 31.0354 128.472 30.6244 127.033 29.8022V36.5848H122.511V12.5374H126.417V13.7706C127.855 12.7429 129.5 12.1263 131.35 12.1263C133.817 12.1263 136.283 13.154 137.722 15.0038C139.161 16.6481 139.983 19.1145 139.983 21.5809ZM135.05 21.5809C135.05 20.1422 134.639 18.7034 134.022 17.6758C133.2 16.4425 132.172 16.0315 130.528 16.0315C129.294 16.0315 128.267 16.4425 127.444 17.2647C126.622 18.2923 126.211 19.9366 126.211 21.3754C126.211 22.8141 126.622 24.6639 127.444 25.486C128.267 26.3082 129.294 26.7192 130.733 26.7192C131.967 26.7192 133.405 26.3082 134.022 25.075C134.844 24.6639 135.05 23.2252 135.05 21.5809Z" fill="#413A61"/>
<path d="M142.45 16.0315C142.45 15.8259 142.655 15.6204 142.861 15.4149C144.505 13.154 146.972 12.1263 149.85 12.1263C153.139 12.1263 155.811 13.154 157.25 15.6204C158.072 16.8536 158.278 18.2923 158.278 19.32V30.6244H154.372V27.5414C153.961 28.569 152.933 29.5967 152.111 30.0078C150.878 30.8299 149.233 31.0354 148 31.0354C146.15 31.0354 144.3 30.2133 143.478 28.9801C142.45 27.7469 142.039 26.7192 142.039 25.2805C142.039 23.4307 143.272 21.3754 144.917 20.3477C146.972 19.32 148.411 19.32 150.878 18.909L153.755 18.4979C153.55 17.8813 153.139 17.2647 152.522 16.8536C151.7 16.4425 150.672 16.237 149.85 16.4425C148.617 16.4425 147.794 16.6481 146.972 17.4702C146.767 17.6757 146.767 17.6757 146.561 17.8813L142.45 16.0315ZM150.467 22.8141C148.617 23.2252 146.561 23.6362 146.355 25.075C146.355 26.1026 147.178 27.1303 148.822 26.9248C150.672 26.9248 152.933 25.8971 153.55 23.8418C153.755 23.0196 153.755 22.403 153.755 22.1975L150.467 22.8141Z" fill="#413A61"/>
<path d="M173.694 18.4979C173.694 18.2924 173.489 18.0869 173.283 17.8813C172.667 16.8537 171.433 16.4426 169.994 16.4426C168.761 16.4426 167.528 17.0592 166.706 17.8813C165.883 18.909 165.678 20.3477 165.678 21.5809C165.678 23.0197 165.883 24.2529 166.706 25.2806C167.528 26.3082 168.761 26.7193 169.994 26.7193C171.228 26.7193 172.667 26.3082 173.283 25.2806C173.489 25.075 173.489 24.8695 173.694 24.6639L178.011 26.5138C177.806 26.9248 177.394 27.5414 176.983 27.9525C175.339 30.0078 172.667 31.0355 169.994 31.0355C167.322 31.0355 164.856 30.0078 163.211 27.9525C161.772 26.1027 160.95 23.8418 160.95 21.3754C160.95 18.909 161.567 16.6481 163.211 14.7983C164.856 12.743 167.528 11.7153 169.994 11.7153C172.667 11.7153 175.339 12.743 176.983 14.7983C177.394 15.2094 177.806 15.826 178.011 16.2371L173.694 18.4979Z" fill="#413A61"/>
<path d="M189.522 21.581L196.1 30.83H190.961L187.261 25.2806L183.561 30.83H178.422L185 21.581L178.628 12.743H183.767L187.467 18.0869L191.167 12.743H196.306L189.522 21.581Z" fill="#413A61"/>
<path d="M198.567 28.1581C197.128 26.3083 196.306 24.0474 196.306 21.581C196.306 19.1146 197.128 16.8537 198.567 15.0039C200.211 12.9486 202.883 11.9209 205.556 11.9209C208.228 11.9209 210.9 12.9486 212.544 15.0039C214.189 16.8537 214.806 19.1146 214.806 21.581C214.806 24.2529 214.189 26.1027 212.544 28.1581C210.9 30.2134 208.433 31.2411 205.556 31.2411C202.883 31.2411 200.211 30.0079 198.567 28.1581ZM209.872 21.581C209.872 20.1422 209.667 18.909 208.844 17.8814C208.022 16.8537 206.789 16.4426 205.556 16.4426C204.322 16.4426 202.883 16.8537 202.267 17.8814C201.444 18.909 201.239 20.3478 201.239 21.581C201.239 23.0197 201.444 24.2529 202.267 25.2806C203.089 26.3083 204.322 26.7193 205.556 26.7193C206.789 26.7193 208.228 26.1027 208.844 25.2806C209.461 24.4584 209.872 23.0197 209.872 21.581Z" fill="#413A61"/>
<path d="M233.306 26.3082H234.744V32.6798H230.428V30.6244H220.15V32.6798H215.833V26.3082C217.683 26.3082 218.917 24.2529 219.328 20.1422L220.15 12.5375H233.1V26.3082H233.306ZM228.989 16.6481H224.056L223.644 20.7588C223.439 23.2252 222.822 25.2806 222 26.5138H229.194V16.6481H228.989Z" fill="#413A61"/>
<path d="M242.761 12.5375V18.2924H246.256C247.9 18.2924 249.544 18.7035 250.778 19.9367C252.011 21.1699 252.628 22.8142 252.628 24.4584C252.628 26.1027 252.011 27.747 250.778 28.9802C249.544 30.2134 247.9 30.6244 246.256 30.6244H238.033V12.5375H242.761ZM242.761 26.3082H246.256C246.667 26.3082 247.283 26.1027 247.489 25.6916C247.9 25.2806 248.106 24.8695 248.106 24.4584C248.106 24.0474 247.9 23.6363 247.694 23.2252C247.283 22.8142 246.872 22.6086 246.256 22.6086H242.761V26.3082V26.3082ZM259 12.5375V30.6244H254.478V12.5375H259Z" fill="#413A61"/>
<path d="M8.83889 10.6877H0V28.3636H8.83889V10.6877Z" fill="#413A61"/>
<path d="M19.1167 6.78271H10.2778V25.0752H19.1167V6.78271Z" fill="#413A61"/>
<path d="M29.3944 10.6877H20.5555V30.6245H29.3944V10.6877Z" fill="#413A61"/>
<path d="M39.8778 12.5375H31.0389V36.5849H39.8778V12.5375Z" fill="#1AD4C5"/>
<path d="M50.1555 6.78271H41.3167V30.6246H50.1555V6.78271Z" fill="#413A61"/>
<path d="M60.4333 0H51.5944V20.5534H60.4333V0Z" fill="#413A61"/>
<path d="M275.679 9.05141C275.679 10.563 275.335 11.7656 274.647 12.6594C273.965 13.5531 273.024 14 271.824 14C270.667 14 269.765 13.5891 269.12 12.7674L269.01 13.8201H267V0H269.22V5.02057C269.86 4.27678 270.721 3.90488 271.806 3.90488C273.011 3.90488 273.959 4.34576 274.647 5.22751C275.335 6.10925 275.679 7.3419 275.679 8.92545V9.05141ZM273.459 8.86247C273.459 7.80677 273.27 7.015 272.893 6.48715C272.515 5.9593 271.967 5.69537 271.248 5.69537C270.286 5.69537 269.61 6.10925 269.22 6.93702V10.9499C269.616 11.7956 270.298 12.2185 271.267 12.2185C271.961 12.2185 272.497 11.9636 272.874 11.4537C273.252 10.9439 273.447 10.1731 273.459 9.14139V8.86247Z" fill="#818FAE"/>
<path d="M281.901 14C280.494 14 279.352 13.5651 278.475 12.6954C277.604 11.8196 277.168 10.656 277.168 9.20437V8.93445C277.168 7.96272 277.357 7.09597 277.735 6.33419C278.119 5.56641 278.654 4.96958 279.343 4.5437C280.031 4.11782 280.798 3.90488 281.645 3.90488C282.991 3.90488 284.029 4.32776 284.76 5.17352C285.497 6.01928 285.866 7.21594 285.866 8.7635V9.64524H279.407C279.474 10.449 279.745 11.0848 280.22 11.5527C280.701 12.0206 281.304 12.2545 282.029 12.2545C283.046 12.2545 283.874 11.8496 284.514 11.0398L285.711 12.1645C285.315 12.7464 284.785 13.1992 284.121 13.5231C283.463 13.841 282.723 14 281.901 14ZM281.636 5.65938C281.027 5.65938 280.533 5.86932 280.156 6.2892C279.784 6.70908 279.547 7.29392 279.443 8.0437H283.673V7.88175C283.624 7.14996 283.427 6.59811 283.079 6.22622C282.732 5.84833 282.251 5.65938 281.636 5.65938Z" fill="#818FAE"/>
<path d="M290.379 1.71851V4.08483H292.124V5.70437H290.379V11.1388C290.379 11.5107 290.452 11.7806 290.598 11.9486C290.751 12.1105 291.019 12.1915 291.402 12.1915C291.658 12.1915 291.917 12.1615 292.179 12.1015V13.7931C291.673 13.931 291.186 14 290.717 14C289.012 14 288.159 13.0733 288.159 11.2198V5.70437H286.533V4.08483H288.159V1.71851H290.379Z" fill="#818FAE"/>
<path d="M299.734 13.8201C299.637 13.6341 299.552 13.3312 299.478 12.9113C298.772 13.6371 297.907 14 296.884 14C295.891 14 295.081 13.7211 294.454 13.1632C293.826 12.6054 293.513 11.9156 293.513 11.0938C293.513 10.0561 293.902 9.26135 294.682 8.70951C295.468 8.15167 296.588 7.87275 298.044 7.87275H299.405V7.23393C299.405 6.73008 299.262 6.32819 298.976 6.02828C298.69 5.72236 298.254 5.56941 297.67 5.56941C297.164 5.56941 296.75 5.69537 296.427 5.9473C296.104 6.19323 295.943 6.50814 295.943 6.89203H293.723C293.723 6.35818 293.902 5.86033 294.262 5.39846C294.621 4.93059 295.108 4.5647 295.724 4.30077C296.345 4.03685 297.036 3.90488 297.797 3.90488C298.955 3.90488 299.877 4.1928 300.566 4.76864C301.254 5.33847 301.607 6.14224 301.625 7.17995V11.5707C301.625 12.4464 301.75 13.1452 302 13.6671V13.8201H299.734ZM297.295 12.2455C297.733 12.2455 298.145 12.1405 298.528 11.9306C298.918 11.7207 299.21 11.4387 299.405 11.0848V9.24936H298.209C297.386 9.24936 296.768 9.39032 296.354 9.67224C295.94 9.95416 295.733 10.353 295.733 10.8689C295.733 11.2888 295.873 11.6247 296.153 11.8766C296.439 12.1225 296.82 12.2455 297.295 12.2455Z" fill="#818FAE"/>
</svg>
